<svg width="32" height="32" viewBox="0 0 32 32" fill="none" xmlns="http://www.w3.org/2000/svg">
<path d="M29.444 21.3085C28.7203 21.8125 27.8887 22.1402 27.0157 22.2652C26.1427 22.3902 25.2526 22.3092 24.4165 22.0285C24.3408 22.0015 24.2596 21.9932 24.18 22.0042C24.1003 22.0153 24.0245 22.0454 23.959 22.092L21.709 23.6875L22.288 24.503L24.3295 23.053C25.2837 23.3317 26.288 23.394 27.2693 23.2355C28.2506 23.077 29.1842 22.7015 30.002 22.1365C30.2967 21.9374 30.576 21.7164 30.8375 21.4755L30.1595 20.7405C29.9357 20.9476 29.6965 21.1375 29.444 21.3085Z" fill="white"/>
<path d="M24.409 13.8465C23.6934 14.3038 23.1201 14.9523 22.7541 15.7187C22.3882 16.485 22.2442 17.3385 22.3385 18.1825L16 22.2455L9.6605 18.185C9.75682 17.3408 9.61353 16.4864 9.24701 15.7198C8.88049 14.9532 8.30556 14.3052 7.588 13.85C6.6355 13.1935 5.47724 12.9047 4.328 13.037C3.7859 13.0901 3.26221 13.2622 2.79431 13.541C2.32641 13.8199 1.92584 14.1986 1.62122 14.6501C1.31659 15.1017 1.11542 15.6149 1.03206 16.1532C0.948705 16.6915 0.985219 17.2415 1.139 17.764C1.44706 18.8786 2.14897 19.8436 3.1145 20.48C3.80583 20.9756 4.62285 21.2663 5.47185 21.3187C6.32084 21.3712 7.16743 21.1833 7.9145 20.7765L12.835 24.27L8.1525 27.2725C7.93117 27.4132 7.74031 27.5968 7.59125 27.8125C7.44218 28.0283 7.33794 28.2718 7.28469 28.5285C7.23144 28.7853 7.23028 29.0501 7.28126 29.3074C7.33224 29.5646 7.43434 29.809 7.5815 30.026C7.72809 30.2426 7.91648 30.4277 8.13561 30.5705C8.35474 30.7132 8.60018 30.8108 8.85753 30.8574C9.11488 30.9039 9.37894 30.8986 9.6342 30.8417C9.88947 30.7848 10.1308 30.6775 10.344 30.526L16 26.515L21.656 30.529C21.8694 30.6852 22.1122 30.7966 22.3698 30.8567C22.6273 30.9168 22.8943 30.9243 23.1548 30.8787C23.4153 30.8331 23.664 30.7354 23.8858 30.5915C24.1076 30.4475 24.2982 30.2603 24.4459 30.0409C24.5937 29.8216 24.6956 29.5747 24.7457 29.315C24.7957 29.0553 24.7928 28.7882 24.7372 28.5297C24.6816 28.2711 24.5743 28.0265 24.4218 27.8104C24.2694 27.5943 24.0749 27.4112 23.85 27.272L19.162 24.272L24.086 20.777C24.833 21.1839 25.6795 21.372 26.5285 21.3197C27.3775 21.2675 28.1946 20.977 28.886 20.4815C30.941 19.0945 31.612 16.4775 30.3805 14.6475C29.149 12.8175 26.4685 12.4595 24.409 13.8465ZM9.765 29.7125C9.55136 29.8563 9.28998 29.9109 9.03664 29.8647C8.78329 29.8185 8.55806 29.675 8.409 29.465C8.33684 29.3586 8.2868 29.2387 8.26183 29.1126C8.23686 28.9865 8.23747 28.8566 8.26363 28.7307C8.28979 28.6048 8.34096 28.4854 8.41412 28.3797C8.48727 28.2739 8.58091 28.1839 8.6895 28.115L13.714 24.893L15.1335 25.9L9.765 29.7125ZM23.735 28.731C23.7742 28.9207 23.7553 29.1179 23.681 29.2967C23.6066 29.4756 23.4801 29.6279 23.3179 29.7339C23.1558 29.8399 22.9655 29.8946 22.7718 29.891C22.5782 29.8874 22.3901 29.8255 22.232 29.7135L8.2125 19.7635C8.12701 19.7029 8.02465 19.6707 7.91985 19.6714C7.81506 19.6721 7.71314 19.7057 7.6285 19.7675C7.03617 20.1541 6.33973 20.3501 5.63273 20.3293C4.92573 20.3085 4.24204 20.0718 3.6735 19.651C2.90855 19.1493 2.35146 18.3872 2.1055 17.506C1.98781 17.1211 1.95766 16.7148 2.01727 16.3167C2.07687 15.9186 2.22473 15.5389 2.45 15.2054C2.67528 14.8718 2.97228 14.5929 3.31928 14.3889C3.66628 14.1849 4.05448 14.0611 4.4555 14.0265C5.36452 13.9245 6.27971 14.1554 7.0315 14.6765C7.63415 15.0464 8.10921 15.5918 8.3929 16.2396C8.67658 16.8873 8.7553 17.6063 8.6185 18.3C8.5928 18.4017 8.59973 18.5089 8.63831 18.6065C8.6769 18.704 8.74518 18.7869 8.8335 18.8435L23.3105 28.1145C23.4191 28.1835 23.5127 28.2736 23.5856 28.3795C23.6585 28.4854 23.7094 28.605 23.735 28.731ZM28.325 19.65C27.7563 20.0707 27.0724 20.3072 26.3654 20.3279C25.6583 20.3485 24.9618 20.1523 24.3695 19.7655C24.2849 19.7037 24.1829 19.6701 24.0781 19.6694C23.9734 19.6687 23.871 19.7009 23.7855 19.7615L18.254 23.6885L16.928 22.8385L23.165 18.8385C23.2531 18.782 23.3213 18.6992 23.3598 18.6019C23.3984 18.5046 23.4055 18.3976 23.38 18.296C23.2459 17.6022 23.3261 16.8839 23.6099 16.2367C23.8937 15.5895 24.3678 15.0439 24.969 14.6725C26.569 13.594 28.626 13.832 29.5505 15.2015C30.475 16.571 29.9245 18.5715 28.325 19.65Z" fill="white"/>
<path d="M6.46351 1.9165L5.91001 1.0835C4.7022 1.8838 3.79641 3.0647 3.3365 4.43866C2.87658 5.81261 2.8889 7.30084 3.3715 8.667L4.31401 8.333C3.90592 7.17684 3.89585 5.91748 4.28538 4.75495C4.67492 3.59242 5.44172 2.59337 6.46401 1.9165H6.46351Z" fill="white"/>
<path d="M5.375 10.134C5.13425 9.86089 4.92089 9.5648 4.738 9.25L3.8725 9.75C4.08844 10.1222 4.34049 10.4722 4.625 10.795L5.375 10.134Z" fill="white"/>
<path d="M21.49 18.1L22.9135 10.983C24.0708 10.8822 25.1444 10.3379 25.9095 9.46374C26.6746 8.58961 27.0721 7.45344 27.0187 6.29297C26.9652 5.1325 26.4651 4.03765 25.6229 3.2375C24.7807 2.43735 23.6617 1.99391 22.5 1.99995C21.489 1.99637 20.5069 2.33765 19.716 2.96745C19.304 2.36131 18.75 1.86514 18.1023 1.52221C17.4546 1.17928 16.7329 1 16 1C15.2671 1 14.5453 1.17928 13.8976 1.52221C13.2499 1.86514 12.696 2.36131 12.284 2.96745C11.4931 2.33765 10.511 1.99637 9.49999 1.99995C8.34228 1.99985 7.22906 2.44593 6.39178 3.24548C5.5545 4.04502 5.05759 5.13649 5.00434 6.29298C4.95109 7.44947 5.34561 8.58199 6.10588 9.45509C6.86615 10.3282 7.93367 10.8747 9.08649 10.981L10.51 18.1L11.49 17.904L11.21 16.5H20.79L20.51 17.9L21.49 18.1ZM19.0765 15.5L19.495 12.571L18.505 12.429L18.0665 15.5H16.5V9.99995H15.5V15.5H13.9335L13.495 12.429L12.505 12.571L12.9235 15.5H11.01L9.98999 10.4C9.96694 10.287 9.90557 10.1855 9.81628 10.1126C9.72699 10.0397 9.61526 9.99993 9.49999 9.99995C8.57174 9.99995 7.6815 9.6312 7.02512 8.97483C6.36874 8.31845 5.99999 7.42821 5.99999 6.49995C5.99999 5.57169 6.36874 4.68146 7.02512 4.02508C7.6815 3.3687 8.57174 2.99995 9.49999 2.99995C9.97648 2.99873 10.4481 3.09578 10.8854 3.28505C11.3227 3.47432 11.7162 3.75173 12.0415 4.09995C12.0971 4.15872 12.1661 4.20313 12.2426 4.22937C12.3191 4.25561 12.4008 4.26289 12.4808 4.2506C12.5607 4.23831 12.6365 4.20681 12.7016 4.1588C12.7667 4.11079 12.8191 4.0477 12.8545 3.97495C13.1401 3.38342 13.5868 2.88441 14.1431 2.53522C14.6995 2.18602 15.3431 2.00079 16 2.00079C16.6569 2.00079 17.3005 2.18602 17.8568 2.53522C18.4132 2.88441 18.8599 3.38342 19.1455 3.97495C19.1808 4.0477 19.2333 4.11079 19.2984 4.1588C19.3635 4.20681 19.4393 4.23831 19.5192 4.2506C19.5992 4.26289 19.6809 4.25561 19.7574 4.22937C19.8339 4.20313 19.9029 4.15872 19.9585 4.09995C20.2837 3.75173 20.6773 3.47432 21.1146 3.28505C21.5519 3.09578 22.0235 2.99873 22.5 2.99995C23.4282 2.99995 24.3185 3.3687 24.9749 4.02508C25.6312 4.68146 26 5.57169 26 6.49995C26 7.42821 25.6312 8.31845 24.9749 8.97483C24.3185 9.6312 23.4282 9.99995 22.5 9.99995C22.3847 9.99993 22.273 10.0397 22.1837 10.1126C22.0944 10.1855 22.033 10.287 22.01 10.4L20.99 15.5H19.0765Z" fill="white"/>
</svg>
