<svg width="107" height="40" viewBox="0 0 107 40" fill="none" xmlns="http://www.w3.org/2000/svg">
<path d="M25.984 26.152C25.28 25.784 24.504 25.488 23.656 25.264C22.232 27.216 20.736 29.064 19.168 30.808C17.6 32.568 16.024 34.104 14.44 35.416C12.872 36.744 11.328 37.792 9.808 38.56C8.288 39.344 6.872 39.736 5.56 39.736C4.008 39.736 2.816 39.392 1.984 38.704C1.152 38.016 0.711999 37.128 0.664 36.04C0.616 35.016 0.816 34.016 1.264 33.04C1.712 32.064 2.336 31.136 3.136 30.256C3.92 29.376 4.848 28.56 5.92 27.808C6.992 27.056 8.144 26.392 9.376 25.816C10.592 25.256 11.848 24.8 13.144 24.448C14.44 24.096 15.712 23.88 16.96 23.8C17.648 23.752 18.328 23.736 19 23.752C19.688 23.768 20.368 23.816 21.04 23.896C22.336 22.088 23.552 20.264 24.688 18.424C25.824 16.568 26.816 14.808 27.664 13.144C28.528 11.48 29.208 9.96 29.704 8.584C30.2 7.208 30.448 6.072 30.448 5.176C30.448 4.92 30.376 4.72 30.232 4.576C30.088 4.416 29.856 4.328 29.536 4.312C29.312 4.296 28.912 4.368 28.336 4.528C27.76 4.672 27.072 4.944 26.272 5.344C25.792 5.584 25.272 5.896 24.712 6.28C24.168 6.664 23.624 7.096 23.08 7.576C22.552 8.056 22.056 8.584 21.592 9.16C21.144 9.72 20.776 10.312 20.488 10.936C20.216 11.544 20.048 12.176 19.984 12.832C19.92 13.488 20.024 14.144 20.296 14.8C20.376 14.976 20.448 15.128 20.512 15.256C20.576 15.368 20.616 15.44 20.632 15.472C20.68 15.552 20.712 15.624 20.728 15.688C20.744 15.736 20.68 15.768 20.536 15.784C20.312 15.8 20.024 15.784 19.672 15.736C19.336 15.688 18.992 15.576 18.64 15.4C18.304 15.208 18 14.936 17.728 14.584C17.456 14.232 17.296 13.76 17.248 13.168C17.184 12.544 17.312 11.864 17.632 11.128C17.952 10.392 18.4 9.648 18.976 8.896C19.568 8.144 20.272 7.424 21.088 6.736C21.904 6.048 22.784 5.432 23.728 4.888C24.672 4.344 25.648 3.912 26.656 3.592C27.68 3.272 28.696 3.112 29.704 3.112C30.344 3.112 30.872 3.176 31.288 3.304C31.72 3.416 32.064 3.576 32.32 3.784C32.592 3.976 32.776 4.216 32.872 4.504C32.984 4.776 33.032 5.072 33.016 5.392C32.952 6.56 32.688 7.896 32.224 9.4C31.76 10.888 31.136 12.472 30.352 14.152C29.568 15.832 28.648 17.56 27.592 19.336C26.536 21.096 25.4 22.84 24.184 24.568C24.584 24.696 24.968 24.84 25.336 25C25.704 25.16 26.056 25.344 26.392 25.552C26.616 25.696 26.856 25.856 27.112 26.032C27.384 26.224 27.632 26.424 27.856 26.632C28.08 26.84 28.264 27.056 28.408 27.28C28.568 27.504 28.656 27.72 28.672 27.928C28.704 28.184 28.688 28.336 28.624 28.384C28.56 28.432 28.416 28.32 28.192 28.048C27.872 27.6 27.512 27.224 27.112 26.92C26.728 26.616 26.352 26.36 25.984 26.152ZM5.512 38.536C6.376 38.52 7.392 38.136 8.56 37.384C9.712 36.632 10.944 35.624 12.256 34.36C13.568 33.112 14.92 31.656 16.312 29.992C17.72 28.344 19.088 26.608 20.416 24.784C19.824 24.736 19.232 24.712 18.64 24.712C18.048 24.712 17.456 24.728 16.864 24.76C15.856 24.808 14.792 25.016 13.672 25.384C12.568 25.752 11.472 26.224 10.384 26.8C9.296 27.392 8.264 28.056 7.288 28.792C6.296 29.544 5.416 30.328 4.648 31.144C3.88 31.96 3.256 32.776 2.776 33.592C2.28 34.408 2 35.184 1.936 35.92C1.904 36.272 1.952 36.608 2.08 36.928C2.208 37.248 2.424 37.528 2.728 37.768C3.016 38.008 3.392 38.2 3.856 38.344C4.32 38.488 4.872 38.552 5.512 38.536ZM31.2417 15.808C31.2417 15.904 31.2497 15.992 31.2657 16.072C31.2817 16.152 31.2817 16.216 31.2657 16.264C31.2497 16.312 31.2177 16.336 31.1697 16.336C31.1217 16.336 31.0337 16.296 30.9057 16.216C30.6337 16.056 30.3457 15.872 30.0417 15.664C29.7537 15.44 29.4897 15.184 29.2497 14.896C29.0097 14.608 28.8257 14.28 28.6977 13.912C28.5697 13.528 28.5377 13.096 28.6017 12.616C28.7777 11.368 29.2017 10.24 29.8737 9.232C30.5617 8.208 31.3857 7.32 32.3457 6.568C33.3217 5.8 34.3777 5.16 35.5137 4.648C36.6497 4.136 37.7617 3.744 38.8497 3.472C39.6337 3.28 40.4177 3.16 41.2017 3.112C42.0017 3.048 42.6577 3 43.1697 2.968C44.5297 2.968 45.9457 3.032 47.4177 3.16C48.8897 3.288 50.3297 3.416 51.7377 3.544C53.1457 3.656 54.4817 3.728 55.7457 3.76C57.0097 3.792 58.1137 3.712 59.0577 3.52C59.5217 3.44 59.9857 3.328 60.4497 3.184C60.9297 3.024 61.3617 2.824 61.7457 2.584C62.1457 2.344 62.4977 2.056 62.8017 1.72C63.1057 1.384 63.3217 0.983998 63.4497 0.519998C63.5297 0.407998 63.6097 0.375998 63.6897 0.423999C63.7697 0.455998 63.8337 0.535998 63.8817 0.663999C63.9297 0.775998 63.9697 0.919998 64.0017 1.096C64.0337 1.256 64.0417 1.392 64.0257 1.504C63.9457 2.304 63.7057 2.992 63.3057 3.568C62.9217 4.128 62.4257 4.592 61.8177 4.96C61.2257 5.328 60.5457 5.608 59.7777 5.8C59.0257 5.976 58.2497 6.088 57.4497 6.136C56.5057 6.216 55.5297 6.208 54.5217 6.112C53.5297 6.016 52.5137 5.888 51.4737 5.728C50.4337 5.552 49.3777 5.368 48.3057 5.176C47.2497 4.984 46.1937 4.824 45.1377 4.696C45.3297 4.888 45.5217 5.12 45.7137 5.392C45.9057 5.648 46.0657 5.92 46.1937 6.208C46.3217 6.496 46.4017 6.784 46.4337 7.072C46.4817 7.36 46.4497 7.624 46.3377 7.864C45.8577 8.84 45.1937 9.856 44.3457 10.912C43.4977 11.968 42.5777 13.04 41.5857 14.128C40.6097 15.216 39.6257 16.304 38.6337 17.392C37.6417 18.48 36.7617 19.56 35.9937 20.632C35.2417 21.688 34.6577 22.72 34.2417 23.728C33.8417 24.72 33.7297 25.664 33.9057 26.56C33.7617 26.64 33.6017 26.64 33.4257 26.56C33.2657 26.48 33.1057 26.336 32.9457 26.128C32.7857 25.92 32.6417 25.656 32.5137 25.336C32.4017 25.016 32.3297 24.664 32.2977 24.28C32.2497 23.688 32.3617 23.04 32.6337 22.336C32.9217 21.616 33.3137 20.864 33.8097 20.08C34.3057 19.296 34.8817 18.488 35.5377 17.656C36.2097 16.824 36.8977 15.992 37.6017 15.16C38.3217 14.328 39.0337 13.504 39.7377 12.688C40.4577 11.872 41.1137 11.096 41.7057 10.36C42.3137 9.608 42.8337 8.904 43.2657 8.248C43.6977 7.592 43.9937 7 44.1537 6.472C44.1697 6.408 44.1857 6.304 44.2017 6.16C44.2337 6.016 44.2657 5.856 44.2977 5.68C44.3297 5.488 44.3617 5.304 44.3937 5.128C44.4257 4.952 44.4577 4.792 44.4897 4.648C43.3857 4.536 42.3057 4.496 41.2497 4.528C40.1937 4.544 39.1617 4.688 38.1537 4.96C36.9377 5.328 35.8817 5.88 34.9857 6.616C34.0897 7.336 33.3537 8.176 32.7777 9.136C32.2177 10.096 31.8097 11.152 31.5537 12.304C31.2977 13.44 31.1937 14.608 31.2417 15.808Z" fill="#FFCA47"/>
<path d="M53.8161 25.24C52.4881 25.24 51.3361 25.032 50.3601 24.616C49.4001 24.2 48.6641 23.656 48.1521 22.984C47.6401 22.296 47.3681 21.56 47.3361 20.776C47.3361 20.648 47.3841 20.536 47.4801 20.44C47.5921 20.328 47.7201 20.272 47.8641 20.272H49.0881C49.3921 20.272 49.6001 20.432 49.7121 20.752C49.8561 21.424 50.2641 22 50.9361 22.48C51.6241 22.96 52.5841 23.2 53.8161 23.2C55.1441 23.2 56.1441 22.968 56.8161 22.504C57.4881 22.024 57.8241 21.36 57.8241 20.512C57.8241 19.968 57.6561 19.528 57.3201 19.192C57.0001 18.856 56.5201 18.56 55.8801 18.304C55.2401 18.048 54.2801 17.728 53.0001 17.344C51.7521 16.992 50.7601 16.616 50.0241 16.216C49.2881 15.816 48.7361 15.32 48.3681 14.728C48.0001 14.136 47.8161 13.392 47.8161 12.496C47.8161 11.632 48.0481 10.856 48.5121 10.168C48.9921 9.48 49.6721 8.944 50.5521 8.56C51.4321 8.16 52.4801 7.96 53.6961 7.96C54.9441 7.96 56.0161 8.184 56.9121 8.632C57.8081 9.064 58.4881 9.616 58.9521 10.288C59.4161 10.96 59.6641 11.632 59.6961 12.304C59.6961 12.432 59.6481 12.544 59.5521 12.64C59.4721 12.736 59.3521 12.784 59.1921 12.784H57.9201C57.5841 12.784 57.3761 12.632 57.2961 12.328C57.2001 11.656 56.8241 11.104 56.1681 10.672C55.5121 10.224 54.6881 10 53.6961 10C52.6081 10 51.7521 10.208 51.1281 10.624C50.5041 11.04 50.1921 11.656 50.1921 12.472C50.1921 13.016 50.3361 13.464 50.6241 13.816C50.9281 14.168 51.3841 14.48 51.9921 14.752C52.6001 15.008 53.4881 15.304 54.6561 15.64C56.0161 16.008 57.0881 16.392 57.8721 16.792C58.6561 17.176 59.2401 17.664 59.6241 18.256C60.0081 18.832 60.2001 19.568 60.2001 20.464C60.2001 21.952 59.6241 23.12 58.4721 23.968C57.3201 24.816 55.7681 25.24 53.8161 25.24ZM63.6098 29.56C63.4498 29.56 63.3138 29.504 63.2018 29.392C63.1058 29.296 63.0578 29.168 63.0578 29.008V13.072C63.0578 12.912 63.1058 12.784 63.2018 12.688C63.3138 12.576 63.4498 12.52 63.6098 12.52H64.7138C64.8738 12.52 65.0018 12.576 65.0978 12.688C65.2098 12.784 65.2658 12.912 65.2658 13.072V14.128C66.1618 12.896 67.4738 12.28 69.2018 12.28C70.8818 12.28 72.1378 12.808 72.9698 13.864C73.8178 14.92 74.2738 16.28 74.3378 17.944C74.3538 18.12 74.3618 18.392 74.3618 18.76C74.3618 19.128 74.3538 19.4 74.3378 19.576C74.2738 21.224 73.8178 22.584 72.9698 23.656C72.1218 24.712 70.8658 25.24 69.2018 25.24C67.5378 25.24 66.2418 24.64 65.3138 23.44V29.008C65.3138 29.168 65.2658 29.296 65.1698 29.392C65.0738 29.504 64.9458 29.56 64.7858 29.56H63.6098ZM68.6978 23.296C69.8338 23.296 70.6578 22.944 71.1698 22.24C71.6978 21.536 71.9858 20.608 72.0338 19.456C72.0498 19.296 72.0578 19.064 72.0578 18.76C72.0578 15.736 70.9378 14.224 68.6978 14.224C67.5938 14.224 66.7618 14.592 66.2018 15.328C65.6578 16.048 65.3618 16.912 65.3138 17.92L65.2898 18.832L65.3138 19.768C65.3458 20.712 65.6498 21.536 66.2258 22.24C66.8018 22.944 67.6258 23.296 68.6978 23.296ZM77.6907 10.192C77.5307 10.192 77.3947 10.144 77.2827 10.048C77.1867 9.936 77.1387 9.8 77.1387 9.64V8.344C77.1387 8.184 77.1867 8.048 77.2827 7.936C77.3947 7.824 77.5307 7.768 77.6907 7.768H79.2027C79.3627 7.768 79.4987 7.824 79.6107 7.936C79.7227 8.048 79.7787 8.184 79.7787 8.344V9.64C79.7787 9.8 79.7227 9.936 79.6107 10.048C79.4987 10.144 79.3627 10.192 79.2027 10.192H77.6907ZM77.8827 25C77.7227 25 77.5867 24.952 77.4747 24.856C77.3787 24.744 77.3307 24.608 77.3307 24.448V13.072C77.3307 12.912 77.3787 12.784 77.4747 12.688C77.5867 12.576 77.7227 12.52 77.8827 12.52H79.0347C79.1947 12.52 79.3227 12.576 79.4187 12.688C79.5307 12.784 79.5867 12.912 79.5867 13.072V24.448C79.5867 24.608 79.5307 24.744 79.4187 24.856C79.3227 24.952 79.1947 25 79.0347 25H77.8827ZM88.1832 25.24C86.4712 25.24 85.1272 24.76 84.1512 23.8C83.1912 22.824 82.6792 21.464 82.6152 19.72L82.5912 18.76L82.6152 17.8C82.6792 16.056 83.1912 14.704 84.1512 13.744C85.1272 12.768 86.4712 12.28 88.1832 12.28C89.3352 12.28 90.3112 12.488 91.1112 12.904C91.9112 13.32 92.5032 13.832 92.8872 14.44C93.2872 15.048 93.5032 15.656 93.5352 16.264C93.5512 16.424 93.5032 16.552 93.3912 16.648C93.2792 16.744 93.1432 16.792 92.9832 16.792H91.8312C91.6712 16.792 91.5512 16.76 91.4712 16.696C91.3912 16.632 91.3112 16.504 91.2312 16.312C90.9592 15.544 90.5752 15 90.0792 14.68C89.5832 14.344 88.9592 14.176 88.2072 14.176C87.2152 14.176 86.4232 14.488 85.8312 15.112C85.2552 15.72 84.9432 16.656 84.8952 17.92L84.8712 18.784L84.8952 19.6C84.9432 20.88 85.2552 21.824 85.8312 22.432C86.4072 23.04 87.1992 23.344 88.2072 23.344C88.9592 23.344 89.5832 23.184 90.0792 22.864C90.5752 22.528 90.9592 21.976 91.2312 21.208C91.3112 21.016 91.3912 20.888 91.4712 20.824C91.5512 20.744 91.6712 20.704 91.8312 20.704H92.9832C93.1432 20.704 93.2792 20.76 93.3912 20.872C93.5032 20.968 93.5512 21.096 93.5352 21.256C93.5032 21.848 93.2872 22.456 92.8872 23.08C92.5032 23.688 91.9112 24.2 91.1112 24.616C90.3272 25.032 89.3512 25.24 88.1832 25.24ZM101.377 25.24C99.7294 25.24 98.4094 24.736 97.4174 23.728C96.4414 22.704 95.9054 21.312 95.8094 19.552L95.7854 18.736L95.8094 17.944C95.9214 16.216 96.4654 14.84 97.4414 13.816C98.4334 12.792 99.7374 12.28 101.353 12.28C103.129 12.28 104.505 12.848 105.481 13.984C106.457 15.104 106.945 16.624 106.945 18.544V18.952C106.945 19.112 106.889 19.248 106.777 19.36C106.681 19.456 106.553 19.504 106.393 19.504H98.0894V19.72C98.1374 20.76 98.4494 21.648 99.0254 22.384C99.6174 23.104 100.393 23.464 101.353 23.464C102.089 23.464 102.689 23.32 103.153 23.032C103.633 22.728 103.985 22.416 104.209 22.096C104.353 21.904 104.457 21.792 104.521 21.76C104.601 21.712 104.737 21.688 104.929 21.688H106.105C106.249 21.688 106.369 21.728 106.465 21.808C106.561 21.888 106.609 22 106.609 22.144C106.609 22.496 106.385 22.92 105.937 23.416C105.505 23.912 104.889 24.344 104.089 24.712C103.305 25.064 102.401 25.24 101.377 25.24ZM104.665 17.848V17.776C104.665 16.672 104.361 15.776 103.753 15.088C103.161 14.384 102.361 14.032 101.353 14.032C100.345 14.032 99.5454 14.384 98.9534 15.088C98.3774 15.776 98.0894 16.672 98.0894 17.776V17.848H104.665Z" fill="white"/>
</svg>
